<?xml version="1.0" encoding="UTF-8"?>
<!-- Generator: Adobe Illustrator 26.4.1, SVG Export Plug-In . SVG Version: 6.00 Build 0)  -->
<svg xmlns="http://www.w3.org/2000/svg" xmlns:xlink="http://www.w3.org/1999/xlink" version="1.1" id="Layer_1" x="0px" y="0px" viewBox="0 0 422.5 77.4" style="enable-background:new 0 0 422.5 77.4;" xml:space="preserve">
<style type="text/css">
	.st0{fill:#FFFFFF;}
	.st1{fill:#022B26;}
	.st2{fill:#3BD895;}
</style>
<g>
	<path d="M58.2,52.4c0,14.5-11.4,24.3-28.4,24.3C13.4,76.6,2.4,67.8,0,52.8l17.7-2.2c1.6,6,5.4,8.7,12.3,8.7c9.9,0,9.9-4.4,9.9-6.5   c0-3.2,0-4.1-12.6-7.1C14.4,42.6,2.5,37.7,2.5,23c0-11.2,8.2-23.8,26.7-23.8c18.5,0,26.5,12.3,27.6,22.7l-17.7,1.9   c-0.9-4.7-4.4-7.3-10.3-7.3c-8.4,0-8.4,4.6-8.4,5.8c0,1.7,0,3.5,11,6.2C50.6,33.1,58.2,39,58.2,52.4z"></path>
	<path d="M330.8,2.5L330.8,2.5c-0.1-0.1-0.1-0.1-0.2-0.1c-3.2-1.5-6.7-2.5-10.4-3c-0.1,0-0.1,0-0.2,0c-1.3-0.1-2.6-0.2-4-0.2   c0,0,0,0,0,0s0,0,0,0c-1.9,0-3.6,0.2-5.4,0.5c-7.5,1.2-14,4.7-18.8,10c-4.8-5.3-11.2-8.8-18.7-10c-1.8-0.3-3.6-0.5-5.5-0.5   c0,0,0,0,0,0c0,0,0,0,0,0c-1.4,0-2.7,0.1-4,0.2c-0.1,0-0.1,0-0.2,0c-3.8,0.4-7.3,1.4-10.4,3c-0.1,0-0.1,0.1-0.2,0.1l0,0   c-3.6,1.8-6.8,4.2-9.5,7.2c-2.7-3-5.9-5.5-9.5-7.2l0,0c-0.1,0-0.1-0.1-0.2-0.1c-3.2-1.5-6.7-2.5-10.4-3c-0.1,0-0.1,0-0.2,0   c-1.3-0.1-2.6-0.2-4-0.2c0,0,0,0,0,0c0,0,0,0,0,0c-1.9,0-3.6,0.2-5.4,0.5c-7.5,1.2-14,4.7-18.8,10c-4.8-5.3-11.2-8.8-18.7-10   c-1.8-0.3-3.6-0.5-5.5-0.5c0,0,0,0,0,0c0,0,0,0,0,0c-1.4,0-2.7,0.1-4,0.2c-0.1,0-0.1,0-0.2,0c-3.8,0.4-7.3,1.4-10.4,3   c-0.1,0-0.1,0.1-0.2,0.1l0,0C144,8.3,136.8,21.1,136.8,38v27.2v9.2h18.9V38c0-1.5,0.1-3.5,0.4-5.6c1-6.4,4.3-14.2,14.4-14.2   c0.9,0,1.7,0.1,2.5,0.2c10.9,1.6,12.2,14.1,12.2,19.7v36.4h0.2h18.8h0.2V38c0-5.6,1.2-18.1,12.2-19.7c0.8-0.1,1.6-0.2,2.5-0.2   c10.1,0,13.4,7.8,14.4,14.2c0.3,2.1,0.4,4,0.4,5.5c0,0,0,0.1,0,0.1v27.2v9.2h0h18.9h0v-2.6V38c0,0,0-0.1,0-0.1   c0-1.5,0.1-3.4,0.4-5.5c1-6.4,4.3-14.2,14.4-14.2c0.9,0,1.7,0.1,2.5,0.2c10.9,1.6,12.2,14.1,12.2,19.7v36.4h0.2h18.8h0.2V38   c0-5.6,1.2-18.1,12.2-19.7c0.8-0.1,1.6-0.2,2.5-0.2c10.1,0,13.4,7.8,14.4,14.2c0.3,2.1,0.4,4.1,0.4,5.6v36.4h18.9v-2.6V38   C349.7,21.1,342.5,8.3,330.8,2.5z"></path>
	<g>
		<path d="M112.5,1.4v13.9c0,6-1.6,19.9-14.8,19.9c-13.2,0-14.8-13.9-14.8-19.9V1.4H64v13.9c0,23.2,13.6,38.8,33.8,38.8c0,0,0,0,0,0    c0,0,0,0,0,0c20.2,0,33.8-15.6,33.8-38.8V1.4H112.5z"></path>
		<rect x="88.2" y="47.9" width="19" height="26.5"></rect>
	</g>
	<g>
		<path d="M403.6,1.4v13.9c0,6-1.6,19.9-14.8,19.9c-13.2,0-14.8-13.9-14.8-19.9V1.4H355v13.9c0,23.2,13.6,38.8,33.8,38.8    c0,0,0,0,0,0c0,0,0,0,0,0c20.2,0,33.8-15.6,33.8-38.8V1.4H403.6z"></path>
		<rect x="379.3" y="47.9" width="19" height="26.5"></rect>
	</g>
</g>
</svg>
